<svg width="96" height="96" viewBox="0 0 96 96" fill="none" xmlns="http://www.w3.org/2000/svg">
  <defs>
    <linearGradient id="leyendo-mark" x1="12" y1="16" x2="78" y2="82" gradientUnits="userSpaceOnUse">
      <stop stop-color="#C9F8FF" />
      <stop offset="0.5" stop-color="#78E7FF" />
      <stop offset="1" stop-color="#349DFF" />
    </linearGradient>
    <linearGradient id="leyendo-fill" x1="20" y1="24" x2="72" y2="76" gradientUnits="userSpaceOnUse">
      <stop stop-color="#B4F4FF" stop-opacity="0.28" />
      <stop offset="1" stop-color="#2D8FFF" stop-opacity="0.08" />
    </linearGradient>
    <filter id="leyendo-glow" x="2" y="6" width="92" height="84" filterUnits="userSpaceOnUse" color-interpolation-filters="sRGB">
      <feFlood flood-opacity="0" result="BackgroundImageFix" />
      <feGaussianBlur in="SourceGraphic" stdDeviation="1.6" result="blur" />
      <feColorMatrix in="blur" type="matrix" values="0 0 0 0 0.32 0 0 0 0 0.88 0 0 0 0 1 0 0 0 0.72 0" result="glow" />
      <feBlend in="SourceGraphic" in2="glow" mode="screen" result="shape" />
    </filter>
  </defs>
  <g filter="url(#leyendo-glow)">
    <path d="M20 24H32C39.732 24 46 30.268 46 38V67.5C41.437 63.833 35.802 62 28.5 62H20V24Z" fill="url(#leyendo-fill)" />
    <path d="M76 24H64C56.268 24 50 30.268 50 38V67.5C54.563 63.833 60.198 62 67.5 62H76V24Z" fill="url(#leyendo-fill)" />
    <path d="M20 24H32C39.732 24 46 30.268 46 38V67.5C41.437 63.833 35.802 62 28.5 62H20V24Z" stroke="url(#leyendo-mark)" stroke-width="4.5" stroke-linecap="round" stroke-linejoin="round" />
    <path d="M76 24H64C56.268 24 50 30.268 50 38V67.5C54.563 63.833 60.198 62 67.5 62H76V24Z" stroke="url(#leyendo-mark)" stroke-width="4.5" stroke-linecap="round" stroke-linejoin="round" />
    <path d="M48 34V68" stroke="url(#leyendo-mark)" stroke-width="4.5" stroke-linecap="round" />
    <path d="M12 31H24" stroke="url(#leyendo-mark)" stroke-width="4.5" stroke-linecap="round" />
    <path d="M9 43H24" stroke="url(#leyendo-mark)" stroke-width="4.5" stroke-linecap="round" opacity="0.92" />
    <path d="M12 55H24" stroke="url(#leyendo-mark)" stroke-width="4.5" stroke-linecap="round" opacity="0.82" />
    <path d="M56 48H78" stroke="url(#leyendo-mark)" stroke-width="4.5" stroke-linecap="round" />
    <path d="M67 37L80 48L67 59" stroke="url(#leyendo-mark)" stroke-width="4.5" stroke-linecap="round" stroke-linejoin="round" />
  </g>
</svg>